ISO-10303-21;
HEADER;
/* Generated by software containing ST-Developer
 * from STEP Tools, Inc. (www.steptools.com) 
 */
/* OPTION: using custom schema-name function */

FILE_DESCRIPTION(
/* description */ (''),
/* implementation_level */ '2;1');

FILE_NAME(
/* name */ '\X2\5F2F7BA165B0\X0\.stp',
/* time_stamp */ '2026-07-09T10:45:18+08:00',
/* author */ (''),
/* organization */ (''),
/* preprocessor_version */ 'ST-DEVELOPER v20',
/* originating_system */ 'SIEMENS PLM Software NX2506.1700',
/* authorisation */ '');

FILE_SCHEMA (('AUTOMOTIVE_DESIGN { 1 0 10303 214 3 1 1 1 }'));
ENDSEC;

DATA;
#10=GEOMETRICALLY_BOUNDED_WIREFRAME_SHAPE_REPRESENTATION(
'\X2\5F2F7BA165B0\X0\-None',(#25),#341);
#11=SHAPE_REPRESENTATION_RELATIONSHIP('None',
'relationship between \X2\5F2F7BA165B0\X0\-None and \X2\5F2F7BA165B0\X0\-
None',#24,#13);
#12=SHAPE_REPRESENTATION_RELATIONSHIP('None',
'relationship between \X2\5F2F7BA165B0\X0\-None and \X2\5F2F7BA165B0\X0\-
None',#24,#10);
#13=ADVANCED_BREP_SHAPE_REPRESENTATION('\X2\5F2F7BA165B0\X0\-None',(#106,
#107),#341);
#14=SHAPE_DEFINITION_REPRESENTATION(#15,#24);
#15=PRODUCT_DEFINITION_SHAPE('','',#16);
#16=PRODUCT_DEFINITION(' ','',#18,#17);
#17=PRODUCT_DEFINITION_CONTEXT('part definition',#23,'design');
#18=PRODUCT_DEFINITION_FORMATION_WITH_SPECIFIED_SOURCE(' ',' ',#20,
 .NOT_KNOWN.);
#19=PRODUCT_RELATED_PRODUCT_CATEGORY('part','',(#20));
#20=PRODUCT('\X2\5F2F7BA165B0\X0\','\X2\5F2F7BA165B0\X0\',' ',(#21));
#21=PRODUCT_CONTEXT(' ',#23,'mechanical');
#22=APPLICATION_PROTOCOL_DEFINITION('international standard',
'automotive_design',2010,#23);
#23=APPLICATION_CONTEXT(
'core data for automotive mechanical design processes');
#24=SHAPE_REPRESENTATION('\X2\5F2F7BA165B0\X0\-None',(#241),#341);
#25=GEOMETRIC_CURVE_SET('None',(#308));
#26=TOROIDAL_SURFACE('',#254,35.,16.);
#27=TOROIDAL_SURFACE('',#256,35.,15.);
#28=OVER_RIDING_STYLED_ITEM('',(#226),#116,#222);
#29=OVER_RIDING_STYLED_ITEM('',(#227),#117,#222);
#30=OVER_RIDING_STYLED_ITEM('',(#228),#118,#222);
#31=OVER_RIDING_STYLED_ITEM('',(#230),#119,#223);
#32=OVER_RIDING_STYLED_ITEM('',(#231),#120,#223);
#33=OVER_RIDING_STYLED_ITEM('',(#232),#121,#223);
#34=OVER_RIDING_STYLED_ITEM('',(#233),#122,#223);
#35=OVER_RIDING_STYLED_ITEM('',(#234),#123,#223);
#36=OVER_RIDING_STYLED_ITEM('',(#235),#124,#223);
#37=OVER_RIDING_STYLED_ITEM('',(#236),#125,#223);
#38=OVER_RIDING_STYLED_ITEM('',(#237),#126,#223);
#39=SURFACE_STYLE_USAGE(.BOTH.,#52);
#40=SURFACE_STYLE_USAGE(.BOTH.,#53);
#41=SURFACE_STYLE_USAGE(.BOTH.,#54);
#42=SURFACE_STYLE_USAGE(.BOTH.,#55);
#43=SURFACE_STYLE_USAGE(.BOTH.,#56);
#44=SURFACE_STYLE_USAGE(.BOTH.,#57);
#45=SURFACE_STYLE_USAGE(.BOTH.,#58);
#46=SURFACE_STYLE_USAGE(.BOTH.,#59);
#47=SURFACE_STYLE_USAGE(.BOTH.,#60);
#48=SURFACE_STYLE_USAGE(.BOTH.,#61);
#49=SURFACE_STYLE_USAGE(.BOTH.,#62);
#50=SURFACE_STYLE_USAGE(.BOTH.,#63);
#51=SURFACE_STYLE_USAGE(.BOTH.,#64);
#52=SURFACE_SIDE_STYLE('',(#65));
#53=SURFACE_SIDE_STYLE('',(#66));
#54=SURFACE_SIDE_STYLE('',(#67));
#55=SURFACE_SIDE_STYLE('',(#68));
#56=SURFACE_SIDE_STYLE('',(#69));
#57=SURFACE_SIDE_STYLE('',(#70));
#58=SURFACE_SIDE_STYLE('',(#71));
#59=SURFACE_SIDE_STYLE('',(#72));
#60=SURFACE_SIDE_STYLE('',(#73));
#61=SURFACE_SIDE_STYLE('',(#74));
#62=SURFACE_SIDE_STYLE('',(#75));
#63=SURFACE_SIDE_STYLE('',(#76));
#64=SURFACE_SIDE_STYLE('',(#77));
#65=SURFACE_STYLE_FILL_AREA(#78);
#66=SURFACE_STYLE_FILL_AREA(#79);
#67=SURFACE_STYLE_FILL_AREA(#80);
#68=SURFACE_STYLE_FILL_AREA(#81);
#69=SURFACE_STYLE_FILL_AREA(#82);
#70=SURFACE_STYLE_FILL_AREA(#83);
#71=SURFACE_STYLE_FILL_AREA(#84);
#72=SURFACE_STYLE_FILL_AREA(#85);
#73=SURFACE_STYLE_FILL_AREA(#86);
#74=SURFACE_STYLE_FILL_AREA(#87);
#75=SURFACE_STYLE_FILL_AREA(#88);
#76=SURFACE_STYLE_FILL_AREA(#89);
#77=SURFACE_STYLE_FILL_AREA(#90);
#78=FILL_AREA_STYLE('',(#91));
#79=FILL_AREA_STYLE('',(#92));
#80=FILL_AREA_STYLE('',(#93));
#81=FILL_AREA_STYLE('',(#94));
#82=FILL_AREA_STYLE('',(#95));
#83=FILL_AREA_STYLE('',(#96));
#84=FILL_AREA_STYLE('',(#97));
#85=FILL_AREA_STYLE('',(#98));
#86=FILL_AREA_STYLE('',(#99));
#87=FILL_AREA_STYLE('',(#100));
#88=FILL_AREA_STYLE('',(#101));
#89=FILL_AREA_STYLE('',(#102));
#90=FILL_AREA_STYLE('',(#103));
#91=FILL_AREA_STYLE_COLOUR('',#104);
#92=FILL_AREA_STYLE_COLOUR('',#105);
#93=FILL_AREA_STYLE_COLOUR('',#105);
#94=FILL_AREA_STYLE_COLOUR('',#105);
#95=FILL_AREA_STYLE_COLOUR('',#104);
#96=FILL_AREA_STYLE_COLOUR('',#105);
#97=FILL_AREA_STYLE_COLOUR('',#105);
#98=FILL_AREA_STYLE_COLOUR('',#105);
#99=FILL_AREA_STYLE_COLOUR('',#105);
#100=FILL_AREA_STYLE_COLOUR('',#105);
#101=FILL_AREA_STYLE_COLOUR('',#105);
#102=FILL_AREA_STYLE_COLOUR('',#105);
#103=FILL_AREA_STYLE_COLOUR('',#105);
#104=COLOUR_RGB('Orange',1.,0.6,0.);
#105=COLOUR_RGB('pale blue',0.537254901960784,0.713725490196078,1.);
#106=MANIFOLD_SOLID_BREP('',#108);
#107=MANIFOLD_SOLID_BREP('',#109);
#108=CLOSED_SHELL('',(#116,#117,#118));
#109=CLOSED_SHELL('',(#119,#120,#121,#122,#123,#124,#125,#126));
#110=PLANE('',#245);
#111=PLANE('',#246);
#112=PLANE('',#261);
#113=PLANE('',#262);
#114=FACE_OUTER_BOUND('',#152,.T.);
#115=FACE_OUTER_BOUND('',#153,.T.);
#116=ADVANCED_FACE('',(#132,#133),#127,.T.);
#117=ADVANCED_FACE('',(#114),#110,.T.);
#118=ADVANCED_FACE('',(#115),#111,.F.);
#119=ADVANCED_FACE('',(#134,#135),#128,.T.);
#120=ADVANCED_FACE('',(#136,#137),#129,.F.);
#121=ADVANCED_FACE('',(#138,#139),#26,.T.);
#122=ADVANCED_FACE('',(#140,#141),#27,.F.);
#123=ADVANCED_FACE('',(#142,#143),#130,.F.);
#124=ADVANCED_FACE('',(#144,#145),#131,.T.);
#125=ADVANCED_FACE('',(#146,#147),#112,.T.);
#126=ADVANCED_FACE('',(#148,#149),#113,.F.);
#127=CYLINDRICAL_SURFACE('',#244,25.);
#128=CYLINDRICAL_SURFACE('',#249,16.);
#129=CYLINDRICAL_SURFACE('',#252,15.);
#130=CYLINDRICAL_SURFACE('',#258,15.);
#131=CYLINDRICAL_SURFACE('',#260,16.);
#132=FACE_BOUND('',#150,.T.);
#133=FACE_BOUND('',#151,.T.);
#134=FACE_BOUND('',#154,.T.);
#135=FACE_BOUND('',#155,.T.);
#136=FACE_BOUND('',#156,.T.);
#137=FACE_BOUND('',#157,.T.);
#138=FACE_BOUND('',#158,.T.);
#139=FACE_BOUND('',#159,.T.);
#140=FACE_BOUND('',#160,.T.);
#141=FACE_BOUND('',#161,.T.);
#142=FACE_BOUND('',#162,.T.);
#143=FACE_BOUND('',#163,.T.);
#144=FACE_BOUND('',#164,.T.);
#145=FACE_BOUND('',#165,.T.);
#146=FACE_BOUND('',#166,.T.);
#147=FACE_BOUND('',#167,.T.);
#148=FACE_BOUND('',#168,.T.);
#149=FACE_BOUND('',#169,.T.);
#150=EDGE_LOOP('',(#170));
#151=EDGE_LOOP('',(#171));
#152=EDGE_LOOP('',(#172));
#153=EDGE_LOOP('',(#173));
#154=EDGE_LOOP('',(#174));
#155=EDGE_LOOP('',(#175));
#156=EDGE_LOOP('',(#176));
#157=EDGE_LOOP('',(#177));
#158=EDGE_LOOP('',(#178));
#159=EDGE_LOOP('',(#179));
#160=EDGE_LOOP('',(#180));
#161=EDGE_LOOP('',(#181));
#162=EDGE_LOOP('',(#182));
#163=EDGE_LOOP('',(#183));
#164=EDGE_LOOP('',(#184));
#165=EDGE_LOOP('',(#185));
#166=EDGE_LOOP('',(#186));
#167=EDGE_LOOP('',(#187));
#168=EDGE_LOOP('',(#188));
#169=EDGE_LOOP('',(#189));
#170=ORIENTED_EDGE('',*,*,#200,.F.);
#171=ORIENTED_EDGE('',*,*,#201,.T.);
#172=ORIENTED_EDGE('',*,*,#200,.T.);
#173=ORIENTED_EDGE('',*,*,#201,.F.);
#174=ORIENTED_EDGE('',*,*,#202,.T.);
#175=ORIENTED_EDGE('',*,*,#203,.F.);
#176=ORIENTED_EDGE('',*,*,#204,.F.);
#177=ORIENTED_EDGE('',*,*,#205,.T.);
#178=ORIENTED_EDGE('',*,*,#206,.T.);
#179=ORIENTED_EDGE('',*,*,#202,.F.);
#180=ORIENTED_EDGE('',*,*,#207,.F.);
#181=ORIENTED_EDGE('',*,*,#204,.T.);
#182=ORIENTED_EDGE('',*,*,#207,.T.);
#183=ORIENTED_EDGE('',*,*,#208,.F.);
#184=ORIENTED_EDGE('',*,*,#206,.F.);
#185=ORIENTED_EDGE('',*,*,#209,.T.);
#186=ORIENTED_EDGE('',*,*,#205,.F.);
#187=ORIENTED_EDGE('',*,*,#203,.T.);
#188=ORIENTED_EDGE('',*,*,#208,.T.);
#189=ORIENTED_EDGE('',*,*,#209,.F.);
#190=VERTEX_POINT('',#310);
#191=VERTEX_POINT('',#312);
#192=VERTEX_POINT('',#317);
#193=VERTEX_POINT('',#319);
#194=VERTEX_POINT('',#322);
#195=VERTEX_POINT('',#324);
#196=VERTEX_POINT('',#327);
#197=VERTEX_POINT('',#330);
#198=VERTEX_POINT('',#333);
#199=VERTEX_POINT('',#336);
#200=EDGE_CURVE('',#190,#190,#210,.T.);
#201=EDGE_CURVE('',#191,#191,#211,.T.);
#202=EDGE_CURVE('',#192,#192,#212,.T.);
#203=EDGE_CURVE('',#193,#193,#213,.T.);
#204=EDGE_CURVE('',#194,#194,#214,.T.);
#205=EDGE_CURVE('',#195,#195,#215,.T.);
#206=EDGE_CURVE('',#196,#196,#216,.T.);
#207=EDGE_CURVE('',#197,#197,#217,.T.);
#208=EDGE_CURVE('',#198,#198,#218,.T.);
#209=EDGE_CURVE('',#199,#199,#219,.T.);
#210=CIRCLE('',#242,25.);
#211=CIRCLE('',#243,25.);
#212=CIRCLE('',#247,16.);
#213=CIRCLE('',#248,16.);
#214=CIRCLE('',#250,15.);
#215=CIRCLE('',#251,15.);
#216=CIRCLE('',#253,16.);
#217=CIRCLE('',#255,15.);
#218=CIRCLE('',#257,15.);
#219=CIRCLE('',#259,16.);
#220=PRESENTATION_LAYER_ASSIGNMENT('1','Layer 1',(#308,#106,#107));
#221=STYLED_ITEM('',(#224),#308);
#222=STYLED_ITEM('',(#225),#106);
#223=STYLED_ITEM('',(#229),#107);
#224=PRESENTATION_STYLE_ASSIGNMENT((#238));
#225=PRESENTATION_STYLE_ASSIGNMENT((#39));
#226=PRESENTATION_STYLE_ASSIGNMENT((#40));
#227=PRESENTATION_STYLE_ASSIGNMENT((#41));
#228=PRESENTATION_STYLE_ASSIGNMENT((#42));
#229=PRESENTATION_STYLE_ASSIGNMENT((#43));
#230=PRESENTATION_STYLE_ASSIGNMENT((#44));
#231=PRESENTATION_STYLE_ASSIGNMENT((#45));
#232=PRESENTATION_STYLE_ASSIGNMENT((#46));
#233=PRESENTATION_STYLE_ASSIGNMENT((#47));
#234=PRESENTATION_STYLE_ASSIGNMENT((#48));
#235=PRESENTATION_STYLE_ASSIGNMENT((#49));
#236=PRESENTATION_STYLE_ASSIGNMENT((#50));
#237=PRESENTATION_STYLE_ASSIGNMENT((#51));
#238=POINT_STYLE('',#239,POSITIVE_LENGTH_MEASURE(3.),#240);
#239=PRE_DEFINED_POINT_MARKER_SYMBOL('plus');
#240=DRAUGHTING_PRE_DEFINED_COLOUR('green');
#241=AXIS2_PLACEMENT_3D('',#307,#263,#264);
#242=AXIS2_PLACEMENT_3D('',#309,#265,#266);
#243=AXIS2_PLACEMENT_3D('',#311,#267,#268);
#244=AXIS2_PLACEMENT_3D('',#313,#269,#270);
#245=AXIS2_PLACEMENT_3D('',#314,#271,#272);
#246=AXIS2_PLACEMENT_3D('',#315,#273,#274);
#247=AXIS2_PLACEMENT_3D('',#316,#275,#276);
#248=AXIS2_PLACEMENT_3D('',#318,#277,#278);
#249=AXIS2_PLACEMENT_3D('',#320,#279,#280);
#250=AXIS2_PLACEMENT_3D('',#321,#281,#282);
#251=AXIS2_PLACEMENT_3D('',#323,#283,#284);
#252=AXIS2_PLACEMENT_3D('',#325,#285,#286);
#253=AXIS2_PLACEMENT_3D('',#326,#287,#288);
#254=AXIS2_PLACEMENT_3D('',#328,#289,#290);
#255=AXIS2_PLACEMENT_3D('',#329,#291,#292);
#256=AXIS2_PLACEMENT_3D('',#331,#293,#294);
#257=AXIS2_PLACEMENT_3D('',#332,#295,#296);
#258=AXIS2_PLACEMENT_3D('',#334,#297,#298);
#259=AXIS2_PLACEMENT_3D('',#335,#299,#300);
#260=AXIS2_PLACEMENT_3D('',#337,#301,#302);
#261=AXIS2_PLACEMENT_3D('',#338,#303,#304);
#262=AXIS2_PLACEMENT_3D('',#339,#305,#306);
#263=DIRECTION('',(0.,0.,1.));
#264=DIRECTION('',(1.,0.,0.));
#265=DIRECTION('',(0.,0.,1.));
#266=DIRECTION('',(1.,0.,0.));
#267=DIRECTION('',(0.,0.,1.));
#268=DIRECTION('',(1.,0.,0.));
#269=DIRECTION('',(0.,0.,-1.));
#270=DIRECTION('',(-1.,0.,0.));
#271=DIRECTION('',(0.,0.,1.));
#272=DIRECTION('',(1.,0.,0.));
#273=DIRECTION('',(0.,0.,1.));
#274=DIRECTION('',(1.,0.,0.));
#275=DIRECTION('',(0.,-3.33066907387547E-16,-1.));
#276=DIRECTION('',(0.,1.,-4.33680868994202E-16));
#277=DIRECTION('',(0.,-3.33066907387547E-16,-1.));
#278=DIRECTION('',(0.,1.,-3.25260651745651E-16));
#279=DIRECTION('',(0.,6.93889390390722E-18,-1.));
#280=DIRECTION('',(0.,1.,0.));
#281=DIRECTION('',(0.,-3.33066907387547E-16,-1.));
#282=DIRECTION('',(0.,1.,-2.31296463463574E-16));
#283=DIRECTION('',(0.,-3.33066907387547E-16,-1.));
#284=DIRECTION('',(0.,1.,-3.46944695195361E-16));
#285=DIRECTION('',(0.,6.93889390390722E-18,-1.));
#286=DIRECTION('',(0.,1.,0.));
#287=DIRECTION('',(0.,-0.942719135061289,-0.333587518335587));
#288=DIRECTION('',(0.,0.333587518335587,-0.942719135061289));
#289=DIRECTION('',(1.,0.,0.));
#290=DIRECTION('',(0.,0.,-1.));
#291=DIRECTION('',(0.,-0.942719135061289,-0.333587518335587));
#292=DIRECTION('',(0.,0.333587518335587,-0.942719135061289));
#293=DIRECTION('',(1.,0.,0.));
#294=DIRECTION('',(0.,0.,-1.));
#295=DIRECTION('',(0.,-0.942719135061289,-0.333587518335587));
#296=DIRECTION('',(0.,0.333587518335587,-0.942719135061289));
#297=DIRECTION('',(0.,0.942719135061289,0.333587518335587));
#298=DIRECTION('',(0.,-0.333587518335587,0.942719135061289));
#299=DIRECTION('',(0.,-0.942719135061289,-0.333587518335587));
#300=DIRECTION('',(0.,0.333587518335586,-0.942719135061289));
#301=DIRECTION('',(0.,0.942719135061289,0.333587518335587));
#302=DIRECTION('',(0.,-0.333587518335586,0.942719135061289));
#303=DIRECTION('',(0.,-3.33066907387547E-16,-1.));
#304=DIRECTION('',(0.,1.,-3.33066907387547E-16));
#305=DIRECTION('',(0.,-0.942719135061289,-0.333587518335587));
#306=DIRECTION('',(0.,0.333587518335587,-0.942719135061289));
#307=CARTESIAN_POINT('',(0.,0.,0.));
#308=CARTESIAN_POINT('Point2',(0.,-2.38588994734556E-16,44.384297849));
#309=CARTESIAN_POINT('',(0.,0.,5.));
#310=CARTESIAN_POINT('',(25.,0.,5.));
#311=CARTESIAN_POINT('',(0.,0.,0.));
#312=CARTESIAN_POINT('',(25.,0.,0.));
#313=CARTESIAN_POINT('',(0.,0.,5.));
#314=CARTESIAN_POINT('',(0.,0.,5.));
#315=CARTESIAN_POINT('',(0.,0.,0.));
#316=CARTESIAN_POINT('',(0.,0.,19.6426372729281));
#317=CARTESIAN_POINT('',(0.,16.,19.6426372729281));
#318=CARTESIAN_POINT('',(0.,1.01603706510246E-16,5.));
#319=CARTESIAN_POINT('',(0.,16.,5.));
#320=CARTESIAN_POINT('',(0.,0.,19.6426372729281));
#321=CARTESIAN_POINT('',(0.,0.,19.6426372729281));
#322=CARTESIAN_POINT('',(0.,15.,19.6426372729281));
#323=CARTESIAN_POINT('',(0.,1.01603706510246E-16,5.));
#324=CARTESIAN_POINT('',(0.,15.,5.));
#325=CARTESIAN_POINT('',(0.,0.,19.6426372729281));
#326=CARTESIAN_POINT('',(0.,23.3244368582545,52.6378070000732));
#327=CARTESIAN_POINT('',(0.,28.6618371516238,37.5543008390926));
#328=CARTESIAN_POINT('',(0.,35.,19.6426372729281));
#329=CARTESIAN_POINT('',(0.,23.3244368582545,52.6378070000732));
#330=CARTESIAN_POINT('',(0.,28.3282496332883,38.4970199741539));
#331=CARTESIAN_POINT('',(0.,35.,19.6426372729281));
#332=CARTESIAN_POINT('',(0.,31.5723966836932,55.5564031621431));
#333=CARTESIAN_POINT('',(0.,36.576209458727,41.4156161362238));
#334=CARTESIAN_POINT('',(0.,23.3244368582545,52.6378070000732));
#335=CARTESIAN_POINT('',(0.,31.5723966836932,55.5564031621431));
#336=CARTESIAN_POINT('',(0.,36.9097969770626,40.4728970011625));
#337=CARTESIAN_POINT('',(0.,23.3244368582545,52.6378070000732));
#338=CARTESIAN_POINT('',(0.,1.01603706510246E-16,5.));
#339=CARTESIAN_POINT('',(0.,31.5723966836932,55.5564031621431));
#340=MECHANICAL_DESIGN_GEOMETRIC_PRESENTATION_REPRESENTATION('',(#221,#222,
#28,#29,#30,#223,#31,#32,#33,#34,#35,#36,#37,#38),#341);
#341=(
GEOMETRIC_REPRESENTATION_CONTEXT(3)
GLOBAL_UNCERTAINTY_ASSIGNED_CONTEXT((#342))
GLOBAL_UNIT_ASSIGNED_CONTEXT((#348,#344,#343))
REPRESENTATION_CONTEXT('\X2\5F2F7BA165B0\X0\','TOP_LEVEL_ASSEMBLY_PART')
);
#342=UNCERTAINTY_MEASURE_WITH_UNIT(LENGTH_MEASURE(2.E-5),#348,
'DISTANCE_ACCURACY_VALUE','Maximum Tolerance applied to model');
#343=(
NAMED_UNIT(*)
SI_UNIT($,.STERADIAN.)
SOLID_ANGLE_UNIT()
);
#344=(
CONVERSION_BASED_UNIT('DEGREE',#346)
NAMED_UNIT(#345)
PLANE_ANGLE_UNIT()
);
#345=DIMENSIONAL_EXPONENTS(0.,0.,0.,0.,0.,0.,0.);
#346=PLANE_ANGLE_MEASURE_WITH_UNIT(PLANE_ANGLE_MEASURE(0.0174532925),#347);
#347=(
NAMED_UNIT(*)
PLANE_ANGLE_UNIT()
SI_UNIT($,.RADIAN.)
);
#348=(
LENGTH_UNIT()
NAMED_UNIT(*)
SI_UNIT(.MILLI.,.METRE.)
);
ENDSEC;
END-ISO-10303-21;
